<?xml version="1.0" encoding="UTF-8"?>
<svg xmlns="http://www.w3.org/2000/svg" width="256" height="256">
	<style type="text/css">
	.line {
		stroke: currentColor;
		stroke-width: 16;
		stroke-linecap: round;
	}
	</style>
	<defs>
		<symbol id="line" viewBox="0 0 256 256">
			<path d="M 128,80 l 0,-64" class="line"/>
		</symbol>
	</defs>
	<g color="#ccc" transform="rotate(-30 128 128)">
		<use xlink:href="#line" width="256" height="256" color="#aaa"/>
		<use xlink:href="#line" width="256" height="256" transform="rotate(30 128 128)" color="#888"/>
		<use xlink:href="#line" width="256" height="256" transform="rotate(60 128 128)" color="#666"/>
		<use xlink:href="#line" width="256" height="256" transform="rotate(90 128 128)" color="#444"/>
		<use xlink:href="#line" width="256" height="256" transform="rotate(120 128 128)" color="#222"/>
		<use xlink:href="#line" width="256" height="256" transform="rotate(150 128 128)" color="#000"/>
		<use xlink:href="#line" width="256" height="256" transform="rotate(180 128 128)"/>
		<use xlink:href="#line" width="256" height="256" transform="rotate(210 128 128)"/>
		<use xlink:href="#line" width="256" height="256" transform="rotate(240 128 128)"/>
		<use xlink:href="#line" width="256" height="256" transform="rotate(270 128 128)"/>
		<use xlink:href="#line" width="256" height="256" transform="rotate(300 128 128)"/>
		<use xlink:href="#line" width="256" height="256" transform="rotate(330 128 128)"/>
	</g>
</svg>