<?xml version="1.0" encoding="UTF-8"?>
<svg xmlns="http://www.w3.org/2000/svg" version="1.0" width="256" height="256">
	<style type="text/css">
	#background {
		fill: white;
	}
	#text {
		fill: black;
	}
	</style>
	<rect x="0" y="0" width="256" height="256" id="background"/>
	<g id="text">
		<!-- Text source-->
		<!--<text x="16" y="156" font-size="112" font-family="Comic Neue" font-weight="bold">no u</text>-->
		<path d="m 22.9,150.8 v -45.5 q 0.0,-2.2 1.7,-3.8 1.7,-1.6 3.9,-1.6 2.1,0.0 3.6,1.6 1.6,1.6 1.6,3.8 v 6.4 q 8.0,-11.6 18.5,-11.6 4.3,0.0 7.3,1.5 3.0,1.3 4.9,3.9 1.9,2.6 2.9,7.1 1.1,4.4 1.5,9.6 0.4,5.2 0.4,12.8 0.0,1.5 0.0,3.0 l -0.1,12.7 q 0.0,2.1 -1.5,3.8 -1.5,1.6 -3.7,1.6 -2.1,0.0 -3.8,-1.6 -1.6,-1.7 -1.6,-3.7 v -14.7 q 0.0,-7.2 -0.4,-12.1 -0.3,-4.9 -0.9,-7.5 -0.6,-2.6 -1.6,-3.9 -1.0,-1.3 -1.8,-1.6 -0.8,-0.2 -2.1,-0.2 -7.1,0.0 -12.9,10.8 -5.3,9.9 -5.3,19.5 v 9.4 q 0.0,2.5 -1.5,4.0 Q 30.8,156.0 28.3,156.0 q -2.1,0.0 -3.8,-1.6 -1.6,-1.6 -1.6,-3.6 z"/>
		<path d="m 84.2,130.0 q 0.0,-12.2 7.7,-21.1 7.8,-9.0 18.5,-9.0 9.7,0.0 16.5,7.7 6.7,7.7 6.7,18.3 0.0,12.2 -7.8,21.2 -7.8,8.8 -18.5,8.8 -9.7,0.0 -16.5,-7.5 -6.6,-7.6 -6.6,-18.5 z m 10.9,-0.1 q 0.0,6.7 3.4,11.4 3.5,4.7 8.8,4.7 6.0,0.0 10.6,-5.8 4.6,-5.9 4.6,-13.7 0.0,-6.7 -3.7,-11.6 -3.7,-4.9 -8.8,-4.9 -6.0,0.0 -10.5,6.0 -4.4,5.9 -4.4,13.9 z"/>
		<path d="m 188.3,123.9 q 0.0,-0.8 0.0,-1.6 0.0,-7.8 1.2,-16.6 0.4,-3.4 1.7,-4.5 1.2,-1.2 3.6,-1.2 2.2,0.0 3.8,1.3 1.6,1.3 1.6,3.9 0.0,0.7 -0.2,2.5 -1.1,11.2 -1.1,16.0 0.0,9.2 1.0,14.4 1.1,5.2 2.6,6.6 1.5,1.5 3.8,1.5 4.0,0.0 8.3,-2.1 4.3,-2.2 6.0,-4.3 0.7,-0.7 0.7,-2.8 l 0.2,-31.9 q 0.0,-2.2 1.6,-3.7 1.6,-1.5 3.7,-1.5 2.1,0.0 3.7,1.5 1.7,1.5 1.7,3.7 v 45.5 q 0.0,2.1 -1.7,3.8 -1.6,1.6 -3.7,1.6 -2.2,0.0 -3.8,-1.2 -1.5,-1.2 -1.9,-3.2 -6.8,4.8 -14.8,4.8 -3.8,0.0 -6.2,-0.4 -2.4,-0.6 -4.8,-2.4 -2.5,-1.9 -3.8,-5.4 -1.3,-3.5 -2.2,-9.5 -0.8,-6.0 -0.9,-14.8 z"/>
	</g>
</svg>