<?xml version="1.0" encoding="UTF-8"?>
<svg xmlns="http://www.w3.org/2000/svg" width="256" height="256">
	<style type="text/css">
	#background {
		fill: yellow;
	}
	#text {
		fill: black;
	}
	</style>
	<!-- Background -->
	<rect x="0" y="0" width="256" height="256" id="background"/>

	<g id="text">
		<!-- Text source-->
		<!--<text x="30" y="170" font-size="128" font-family="Comic Neue" font-weight="bold">oof</text>-->
		<!-- Text -->
		<path d="m 36.1,140.3 q 0.0,-14.0 8.8,-24.1 9.0,-10.2 21.1,-10.2 11.1,0.0 18.8,8.8 7.7,8.8 7.7,20.9 0.0,14.0 -9.0,24.2 Q 74.7,170.0 62.5,170.0 q -11.1,0.0 -18.8,-8.6 -7.6,-8.7 -7.6,-21.1 z m 12.4,-0.1 q 0.0,7.7 3.8,13.1 4.0,5.4 10.1,5.4 6.9,0.0 12.2,-6.7 5.2,-6.8 5.2,-15.6 0.0,-7.7 -4.2,-13.3 -4.2,-5.6 -10.1,-5.6 -6.9,0.0 -12.0,6.9 -5.0,6.8 -5.0,15.9 z"/>
		<path d="m 107.9,140.3 q 0.0,-14.0 8.8,-24.1 9.0,-10.2 21.1,-10.2 11.1,0.0 18.8,8.8 7.7,8.8 7.7,20.9 0.0,14.0 -9.0,24.2 -9.0,10.1 -21.1,10.1 -11.1,0.0 -18.8,-8.6 -7.6,-8.7 -7.6,-21.1 z m 12.4,-0.1 q 0.0,7.7 3.8,13.1 4.0,5.4 10.1,5.4 6.9,0.0 12.2,-6.7 5.2,-6.8 5.2,-15.6 0.0,-7.7 -4.2,-13.3 -4.2,-5.6 -10.1,-5.6 -6.9,0.0 -12.0,6.9 -5.0,6.8 -5.0,15.9 z"/>
		<path d="m 175.7,111.9 q 0.0,-2.4 1.8,-4.2 1.8,-1.8 4.0,-1.8 h 6.1 q 0.5,-12.2 6.5,-17.0 6.1,-5.0 19.6,-5.0 7.4,0.0 7.4,5.9 0.0,2.6 -1.7,4.4 -1.5,1.7 -4.4,1.7 -8.4,0.0 -11.6,1.9 -3.1,1.8 -3.6,8.2 L 212.9,106.0 q 2.0,0.0 3.8,1.8 1.9,1.7 1.9,4.1 0.0,2.3 -1.8,4.1 -1.7,1.8 -4.0,1.8 H 199.7 v 46.3 q 0.0,2.3 -1.9,4.1 -1.8,1.8 -4.2,1.8 -2.4,0.0 -4.4,-1.8 -1.8,-1.8 -1.8,-4.1 v -46.3 h -5.9 q -2.3,0.0 -4.1,-1.8 -1.8,-1.8 -1.8,-4.1 z"/>
	</g>
</svg>