<?xml version="1.0" encoding="UTF-8"?>
<svg xmlns="http://www.w3.org/2000/svg" width="256" height="256">
	<defs>
		<linearGradient id="star-gradient" x1="1" y1="0" x2="0" y2="1">
			<stop offset="0%" stop-color="#ca2"/>
			<stop offset="100%" stop-color="#ff8"/>
		</linearGradient>
	</defs>
	<style type="text/css">
	#star {
		fill: url(#star-gradient);
	}
	#text {
		fill: black;
	}
	</style>
	<!-- Star -->
	<path d="M 128,8 L 52.8,239.6 L 249.7,96.4 L 6.3,96.4 L 203.2,239.6 Z" id="star"/>

	<g id="text">
		<!-- Text source -->
		<!--
		<text x="92" y="124" font-size="48" font-family="Comic Neue" font-weight="bold">you</text>
		<text x="76" y="164" font-size="48" font-family="Comic Neue" font-weight="bold">tried</text>
		-->
		<!-- Text -->
		<path d="m 93.0,102.4 q 0.0,-1.0 0.7,-1.6 0.7,-0.7 1.6,-0.7 1.3,0.0 2.1,1.4 l 6.7,13.4 6.1,-13.4 q 0.7,-1.5 2.2,-1.5 0.9,0.0 1.6,0.7 0.7,0.7 0.7,1.7 0.0,0.5 -0.2,1.0 l -12.8,27.8 q -0.7,1.5 -2.2,1.5 -1.0,0.0 -1.6,-0.7 -0.7,-0.7 -0.7,-1.6 0.0,-0.4 0.2,-1.0 l 4.1,-9.0 -8.3,-16.8 q -0.3,-0.6 -0.3,-1.2 z"/>
		<path d="m 119.1,112.9 q 0.0,-5.2 3.3,-9.0 3.4,-3.8 7.9,-3.8 4.2,0.0 7.1,3.3 2.9,3.3 2.9,7.8 0.0,5.2 -3.4,9.1 -3.4,3.8 -7.9,3.8 -4.2,0.0 -7.1,-3.2 -2.8,-3.3 -2.8,-7.9 z m 4.7,-0.0 q 0.0,2.9 1.4,4.9 1.5,2.0 3.8,2.0 2.6,0.0 4.6,-2.5 2.0,-2.5 2.0,-5.9 0.0,-2.9 -1.6,-5.0 -1.6,-2.1 -3.8,-2.1 -2.6,0.0 -4.5,2.6 -1.9,2.5 -1.9,6.0 z"/>
		<path d="m 146.6,110.2 q 0.0,-0.3 0.0,-0.7 0.0,-3.4 0.5,-7.1 0.2,-1.4 0.7,-1.9 0.5,-0.5 1.5,-0.5 1.0,0.0 1.6,0.6 0.7,0.6 0.7,1.7 0.0,0.3 -0.1,1.1 -0.5,4.8 -0.5,6.9 0.0,3.9 0.4,6.2 0.5,2.2 1.1,2.8 0.6,0.6 1.6,0.6 1.7,0.0 3.6,-0.9 1.8,-1.0 2.6,-1.8 0.3,-0.3 0.3,-1.2 l 0.1,-13.7 q 0.0,-1.0 0.7,-1.6 0.7,-0.6 1.6,-0.6 0.9,0.0 1.6,0.6 0.7,0.6 0.7,1.6 v 19.5 q 0.0,0.9 -0.7,1.6 -0.7,0.7 -1.6,0.7 -1.0,0.0 -1.6,-0.5 -0.6,-0.5 -0.8,-1.4 -2.9,2.1 -6.3,2.1 -1.6,0.0 -2.6,-0.2 -1.0,-0.2 -2.1,-1.0 -1.1,-0.8 -1.6,-2.3 -0.6,-1.5 -1.0,-4.1 -0.3,-2.6 -0.4,-6.3 z"/>
		<path d="m 76.8,142.4 q 0.0,-1.1 0.7,-1.7 0.7,-0.7 1.7,-0.7 h 3.9 v -5.1 q 0.0,-0.9 0.7,-1.6 0.7,-0.7 1.6,-0.7 1.0,0.0 1.6,0.7 0.7,0.7 0.7,1.6 V 140 h 4.1 q 1.0,0.0 1.6,0.7 0.7,0.7 0.7,1.7 0.0,0.9 -0.7,1.6 -0.7,0.7 -1.6,0.7 h -4.1 v 17.1 q 0.0,0.9 -0.7,1.6 -0.7,0.7 -1.6,0.7 -0.9,0.0 -1.6,-0.7 -0.7,-0.7 -0.7,-1.6 V 144.7 H 79.1 q -1.0,0.0 -1.6,-0.7 -0.7,-0.7 -0.7,-1.6 z"/>
		<path d="m 98.6,161.8 v -19.4 q 0.0,-1.0 0.7,-1.6 0.7,-0.7 1.7,-0.7 1.0,0.0 1.6,0.7 0.7,0.7 0.7,1.6 v 0.7 q 2.7,-3.1 6.4,-3.1 2.4,0.0 3.5,1.3 1.1,1.3 1.1,3.2 v 1.4 q 0.0,1.0 -0.7,1.6 -0.6,0.6 -1.6,0.6 -1.2,0.0 -1.7,-0.7 -0.5,-0.7 -0.5,-1.6 v -0.6 q 0.0,-0.8 -0.7,-0.8 -2.0,0.0 -4.6,3.5 -1.2,1.6 -1.2,4.0 l -0.0,9.8 q 0.0,0.9 -0.7,1.5 -0.7,0.7 -1.6,0.7 -0.9,0.0 -1.6,-0.7 -0.7,-0.7 -0.7,-1.5 z"/>
		<path d="m 119.1,161.6 0.2,-19.1 q 0.0,-1.0 0.7,-1.6 0.7,-0.7 1.7,-0.7 1.0,0.0 1.7,0.7 0.7,0.7 0.7,1.6 l -0.2,19.1 q 0.0,1.0 -0.7,1.7 -0.7,0.7 -1.6,0.7 -1.0,0.0 -1.7,-0.7 -0.7,-0.7 -0.7,-1.7 z m 0.3,-26.0 0.0,-1.8 q 0.0,-0.9 0.7,-1.6 0.7,-0.7 1.6,-0.7 0.9,0.0 1.6,0.7 0.7,0.7 0.7,1.6 l -0.0,1.8 q -0.0,1.0 -0.7,1.6 -0.6,0.6 -1.6,0.6 -0.9,0.0 -1.6,-0.7 -0.7,-0.7 -0.6,-1.7 z"/>
		<path d="m 130.1,152.5 q 0.0,-5.1 3.0,-8.8 3.0,-3.7 7.8,-3.7 4.3,0.0 6.7,2.4 2.5,2.4 2.5,4.5 0.0,1.3 -1.5,2.2 l -12.9,7.4 q 2.1,3.0 6.2,3.0 1.2,0.0 2.5,-0.6 1.4,-0.6 2.2,-1.4 0.8,-0.8 1.6,-0.8 1.0,0.0 1.6,0.7 0.7,0.6 0.7,1.6 0.0,0.9 -0.6,1.4 -1.3,1.5 -3.6,2.5 -2.2,1.0 -4.4,1.0 -5.3,0.0 -8.6,-3.4 -3.3,-3.4 -3.3,-8.1 z m 4.4,-0.4 10.8,-6.0 q -1.2,-1.6 -4.4,-1.6 -2.7,0.0 -4.6,2.2 -1.8,2.2 -1.9,5.4 z"/>
		<path d="m 156.3,153.1 q 0.0,-5.6 2.5,-9.3 2.6,-3.7 7.9,-3.7 2.4,0.0 4.9,0.8 l 0.2,-7.2 q 0.0,-1.0 0.7,-1.6 0.7,-0.7 1.6,-0.7 0.9,0.0 1.6,0.8 0.7,0.7 0.7,1.7 l -0.7,27.9 q -0.0,1.0 -0.7,1.6 -0.7,0.6 -1.6,0.6 -1.0,0.0 -1.6,-0.6 -0.6,-0.7 -0.7,-1.5 -2.9,2.0 -6.3,2.0 -4.1,0.0 -6.4,-3.2 -2.2,-3.2 -2.2,-7.6 z m 4.6,-0.1 q 0.0,2.5 0.9,4.6 1.0,2.0 3.1,2.0 2.6,0.0 4.6,-1.3 2.0,-1.3 2.0,-2.4 l 0.2,-9.9 q -2.7,-1.2 -4.8,-1.2 -1.8,0.0 -3.0,0.8 -1.2,0.8 -1.8,2.1 -0.6,1.3 -0.8,2.6 -0.2,1.3 -0.2,2.7 z"/>
	</g>
</svg>