<?xml version="1.0" encoding="UTF-8"?>
<svg xmlns="http://www.w3.org/2000/svg" width="256" height="256">
	<defs>
		<linearGradient id="star-gradient" x1="1" y1="0" x2="0" y2="1">
			<stop offset="0%" stop-color="#ca2"/>
			<stop offset="100%" stop-color="#ff8"/>
		</linearGradient>
	</defs>
	<style type="text/css">
	#star {
		fill: url(#star-gradient);
	}
	#text {
		fill: black;
	}
	</style>
	<!-- Star -->
	<path d="M 128,8 L 52.8,239.6 L 249.7,96.4 L 6.3,96.4 L 203.2,239.6 Z" id="star"/>

	<g id="text">
		<!-- Text source -->
		<!--
		<text x="80" y="108" font-size="64" font-family="Comic Neue" font-weight="bold">you</text>
		<text x="60" y="184" font-size="64" font-family="Comic Neue" font-weight="bold">tried</text>
		-->
		<!-- Text -->
		<path d="m 81.3,79.1 q 0.0,-1.3 0.9,-2.2 0.9,-1.0 2.2,-1.0 1.8,0.0 2.8,1.9 l 8.9,17.9 8.2,-17.9 q 1.0,-2.0 2.9,-2.0 1.2,0.0 2.1,0.9 1.0,0.9 1.0,2.2 0.0,0.7 -0.3,1.3 l -17.1,37.1 q -1.0,2.0 -2.9,2.0 -1.3,0.0 -2.2,-1.0 -0.9,-0.9 -0.9,-2.2 0.0,-0.6 0.3,-1.3 L 92.7,103.0 81.7,80.7 Q 81.3,79.9 81.3,79.1 Z"/>
		<path d="m 116.1,93.2 q 0.0,-7.0 4.4,-12.0 4.5,-5.1 10.6,-5.1 5.6,0.0 9.4,4.4 3.8,4.4 3.8,10.4 0.0,7.0 -4.5,12.1 -4.5,5.1 -10.6,5.1 -5.6,0.0 -9.4,-4.3 -3.8,-4.4 -3.8,-10.6 z m 6.2,-0.1 q 0.0,3.8 1.9,6.5 2.0,2.7 5.1,2.7 3.5,0.0 6.1,-3.3 2.6,-3.4 2.6,-7.8 0.0,-3.8 -2.1,-6.7 -2.1,-2.8 -5.1,-2.8 -3.5,0.0 -6.0,3.5 -2.5,3.4 -2.5,7.9 z"/>
		<path d="m 152.8,89.6 q 0.0,-0.4 0.0,-0.9 0.0,-4.5 0.7,-9.5 0.3,-1.9 1.0,-2.6 0.7,-0.7 2.0,-0.7 1.3,0.0 2.2,0.8 0.9,0.8 0.9,2.2 0.0,0.4 -0.1,1.4 -0.6,6.4 -0.6,9.2 0.0,5.2 0.6,8.3 0.6,2.9 1.5,3.8 0.8,0.8 2.2,0.8 2.3,0.0 4.7,-1.2 2.4,-1.3 3.5,-2.4 0.4,-0.4 0.4,-1.6 l 0.1,-18.2 q 0.0,-1.3 0.9,-2.1 0.9,-0.8 2.1,-0.8 1.2,0.0 2.1,0.8 1.0,0.8 1.0,2.1 v 26.0 q 0.0,1.2 -1.0,2.2 -0.9,0.9 -2.1,0.9 -1.3,0.0 -2.2,-0.7 -0.8,-0.7 -1.1,-1.9 -3.9,2.8 -8.4,2.8 -2.2,0.0 -3.5,-0.3 -1.3,-0.3 -2.8,-1.3 -1.4,-1.1 -2.2,-3.1 -0.8,-2.0 -1.3,-5.4 -0.4,-3.5 -0.5,-8.4 z"/>
		<path d="m 61.1,155.1 q 0.0,-1.4 1.0,-2.2 1.0,-0.9 2.2,-0.9 h 5.2 v -6.8 q 0.0,-1.2 0.9,-2.2 0.9,-1.0 2.2,-1.0 1.3,0.0 2.2,1.0 0.9,0.9 0.9,2.2 V 152 h 5.4 q 1.3,0.0 2.2,0.9 0.9,0.9 0.9,2.2 0.0,1.2 -0.9,2.2 -0.9,0.9 -2.2,0.9 h -5.4 v 22.8 q 0.0,1.2 -0.9,2.1 -0.9,0.9 -2.2,0.9 -1.2,0.0 -2.2,-0.9 -0.9,-0.9 -0.9,-2.1 V 158.2 H 64.2 q -1.3,0.0 -2.2,-0.9 -0.9,-1.0 -0.9,-2.2 z"/>
		<path d="m 90.2,181.1 v -25.9 q 0.0,-1.3 0.9,-2.2 1.0,-0.9 2.2,-0.9 1.3,0.0 2.2,0.9 1.0,0.9 1.0,2.2 v 0.9 q 3.6,-4.1 8.6,-4.1 3.3,0.0 4.7,1.8 1.5,1.8 1.5,4.3 v 1.9 q 0.0,1.3 -0.9,2.2 -0.8,0.8 -2.1,0.8 -1.5,0.0 -2.3,-0.9 -0.7,-0.9 -0.7,-2.2 v -0.8 q 0.0,-1.0 -0.9,-1.0 -2.6,0.0 -6.1,4.7 -1.7,2.1 -1.7,5.3 l -0.1,13.1 q 0.0,1.2 -1.0,2.0 -0.9,0.9 -2.1,0.9 -1.2,0.0 -2.2,-0.9 -1.0,-0.9 -1.0,-2.0 z"/>
		<path d="m 117.5,180.9 0.3,-25.5 q 0.0,-1.3 0.9,-2.2 1.0,-1.0 2.2,-1.0 1.3,0.0 2.2,1.0 0.9,0.9 0.9,2.2 l -0.3,25.5 q 0.0,1.3 -1.0,2.2 -0.9,0.9 -2.2,0.9 -1.3,0.0 -2.2,-0.9 -0.9,-1.0 -0.9,-2.2 z m 0.4,-34.6 0.1,-2.4 q 0.1,-1.2 1.0,-2.1 0.9,-0.9 2.1,-0.9 1.2,0.0 2.1,1.0 1.0,1.0 0.9,2.1 l -0.1,2.4 q -0.1,1.3 -1.0,2.2 -0.8,0.8 -2.1,0.8 -1.2,0.0 -2.2,-0.9 -0.9,-1.0 -0.8,-2.2 z"/>
		<path d="m 132.1,168.7 q 0.0,-6.8 4.0,-11.7 4.0,-4.9 10.4,-4.9 5.7,0.0 9.0,3.2 3.3,3.1 3.3,6.0 0.0,1.8 -2.0,2.9 l -17.2,9.9 q 2.8,4.0 8.3,4.0 1.6,0.0 3.4,-0.8 1.9,-0.8 2.9,-1.9 1.0,-1.0 2.1,-1.0 1.3,0.0 2.1,0.9 0.9,0.8 0.9,2.1 0.0,1.2 -0.8,1.9 -1.8,2.0 -4.8,3.4 -2.9,1.3 -5.9,1.3 -7.0,0.0 -11.5,-4.5 -4.4,-4.5 -4.4,-10.8 z m 5.8,-0.5 14.5,-8.0 q -1.5,-2.1 -5.8,-2.1 -3.6,0.0 -6.1,2.9 -2.4,2.9 -2.6,7.2 z"/>
		<path d="m 167.1,169.4 q 0.0,-7.4 3.4,-12.4 3.5,-4.9 10.6,-4.9 3.1,0.0 6.5,1.1 l 0.3,-9.5 q 0.1,-1.3 1.0,-2.2 0.9,-1.0 2.2,-1.0 1.2,0.0 2.2,1.0 1.0,1.0 0.9,2.2 l -0.9,37.2 q -0.1,1.3 -1.0,2.1 -0.9,0.8 -2.2,0.8 -1.3,0.0 -2.2,-0.8 -0.8,-0.9 -0.9,-2.0 -3.9,2.6 -8.4,2.6 -5.5,0.0 -8.5,-4.2 -2.9,-4.3 -2.9,-10.1 z m 6.1,-0.2 q 0.0,3.4 1.2,6.1 1.3,2.7 4.1,2.7 3.5,0.0 6.1,-1.7 2.6,-1.8 2.6,-3.1 l 0.3,-13.2 q -3.6,-1.7 -6.4,-1.7 -2.4,0.0 -4.0,1.1 -1.7,1.0 -2.4,2.8 -0.8,1.7 -1.1,3.5 -0.3,1.7 -0.3,3.6 z"/>
	</g>
</svg>